<svg width="809" height="769" viewBox="0 0 809 769" fill="none" xmlns="http://www.w3.org/2000/svg">
<path d="M388.064 420.687C469.027 501.65 471.937 630.023 394.551 707.409C355.865 746.095 304.418 764.727 252.549 763.535C198.04 762.085 146.202 739.651 107.843 700.909C69.095 662.548 46.656 610.705 45.2043 556.19C44.0249 504.308 62.6439 452.874 101.33 414.188C178.716 336.802 307.089 339.712 388.064 420.687Z" stroke="#2565E5" stroke-miterlimit="10"/>
<path d="M398.994 409.758C456.58 467.345 473.104 549.885 447.679 619.061C436.911 648.345 418.85 674.399 395.205 694.759C371.561 715.118 343.114 729.11 312.558 735.409C298.141 738.417 283.428 739.76 268.706 739.414C216.351 737.762 166.598 716.231 129.566 679.199C92.5335 642.167 71.0023 592.414 69.3507 540.059C68.1968 490.168 86.0912 440.701 123.303 403.489C161.033 365.76 211.379 347.891 261.994 349.588C313.65 351.523 362.628 373.034 398.994 409.758V409.758Z" stroke="#2D6AE6" stroke-miterlimit="10"/>
<path d="M409.936 398.816C465.221 454.101 481.086 533.343 456.67 599.753C446.323 627.865 428.975 652.874 406.267 672.414C383.559 691.955 356.243 705.379 326.904 711.418C313.059 714.293 298.933 715.581 284.798 715.254C234.552 713.646 186.81 692.972 151.269 657.431C115.728 621.89 95.0539 574.148 93.4459 523.902C92.3691 476.004 109.552 428.515 145.264 392.803C181.48 356.587 229.822 339.43 278.419 341.05C328.007 342.913 375.024 363.564 409.936 398.816V398.816Z" stroke="#3570E6" stroke-miterlimit="10"/>
<path d="M420.866 387.886C473.875 440.896 489.055 516.789 465.662 580.444C455.749 607.366 439.135 631.318 417.39 650.036C395.646 668.754 369.489 681.618 341.393 687.414C328.134 690.162 314.606 691.388 301.071 691.069C252.925 689.544 207.171 669.753 173.099 635.715C139.027 601.677 119.191 555.942 117.619 507.798C116.58 461.903 133.051 416.393 167.275 382.169C201.991 347.453 248.316 331.021 294.883 332.576C342.378 334.365 387.412 354.136 420.866 387.886V387.886Z" stroke="#3D75E7" stroke-miterlimit="10"/>
<path d="M431.847 376.905C482.529 427.587 497.063 500.222 474.692 561.096C465.218 586.868 449.323 609.798 428.514 627.716C407.705 645.634 382.669 657.946 355.777 663.487C343.074 666.141 330.109 667.332 317.136 667.038C271.063 665.586 227.279 646.639 194.689 614.049C162.1 581.46 143.153 537.676 141.7 491.602C141.057 469.407 144.942 447.312 153.119 426.664C161.296 406.016 173.594 387.25 189.261 371.509C222.49 338.28 266.706 322.508 311.243 323.999C356.708 325.685 399.824 344.598 431.847 376.905V376.905Z" stroke="#447BE7" stroke-miterlimit="10"/>
<path d="M442.75 366.001C491.131 414.382 504.993 483.707 483.644 541.826C474.59 566.42 459.415 588.301 439.554 605.403C419.693 622.504 395.801 634.26 370.136 639.561C357.998 642.058 345.616 643.163 333.228 642.853C289.246 641.466 247.45 623.379 216.34 592.269C185.231 561.159 167.143 519.363 165.757 475.381C165.064 454.029 168.792 432.762 176.706 412.915C184.62 393.068 196.549 375.07 211.746 360.048C226.942 345.026 245.078 333.306 265.015 325.622C284.952 317.938 306.261 314.457 327.603 315.396C371.025 317.029 412.192 335.121 442.75 366.001V366.001Z" stroke="#4C80E8" stroke-miterlimit="10"/>
<path d="M453.68 355.072C499.747 401.138 512.976 467.165 492.636 522.517C484.013 545.94 469.562 566.779 450.646 583.066C431.731 599.353 408.976 610.548 384.534 615.595C372.995 617.995 361.219 619.065 349.437 618.784C307.552 617.465 267.749 600.241 238.123 570.615C208.497 540.99 191.274 501.187 189.955 459.302C189.29 438.966 192.835 418.711 200.369 399.807C207.903 380.904 219.263 363.76 233.736 349.453C248.208 335.145 265.481 323.983 284.47 316.666C303.459 309.35 323.753 306.037 344.08 306.936C385.404 308.487 424.586 325.695 453.68 355.072Z" stroke="#5486E8" stroke-miterlimit="10"/>
<path d="M464.622 344.129C508.388 387.895 520.984 450.676 501.627 503.208C493.437 525.46 479.708 545.257 461.738 560.729C443.769 576.201 422.152 586.837 398.932 591.63C387.966 593.912 376.777 594.933 365.58 594.676C325.792 593.41 287.984 577.042 259.841 548.898C231.697 520.755 215.329 482.947 214.063 443.159C213.442 423.837 216.821 404.595 223.988 386.638C231.156 368.681 241.957 352.399 255.714 338.812C269.471 325.225 285.886 314.627 303.93 307.684C321.975 300.74 341.258 297.6 360.57 298.462C399.795 299.938 436.988 316.262 464.622 344.129Z" stroke="#5C8BE9" stroke-miterlimit="10"/>
<path d="M475.552 333.2C517.016 374.664 528.914 434.083 510.606 483.886C502.853 504.973 489.849 523.734 472.824 538.397C455.8 553.059 435.318 563.137 413.317 567.678C402.932 569.826 392.338 570.791 381.737 570.555C344.053 569.345 308.249 553.839 281.594 527.184C254.939 500.529 239.432 464.724 238.223 427.041C237.622 408.738 240.811 390.507 247.589 373.492C254.367 356.477 264.588 341.045 277.612 328.165C290.635 315.285 306.179 305.235 323.268 298.645C340.357 292.055 358.622 289.069 376.917 289.872C414.108 291.268 449.371 306.758 475.552 333.2V333.2Z" stroke="#6490E9" stroke-miterlimit="10"/>
<path d="M486.495 322.258C525.657 361.42 536.896 417.541 519.597 464.578C512.278 484.495 499.995 502.215 483.914 516.062C467.833 529.908 448.484 539.421 427.702 543.699C417.898 545.744 407.892 546.657 397.881 546.421C362.282 545.289 328.455 530.645 303.275 505.464C278.094 480.284 263.45 446.457 262.318 410.858C261.752 393.573 264.765 376.355 271.169 360.286C277.573 344.217 287.23 329.645 299.532 317.483C311.834 305.321 326.517 295.834 342.659 289.615C358.8 283.396 376.051 280.582 393.329 281.347C428.456 282.661 461.763 297.287 486.495 322.258V322.258Z" stroke="#6C96EA" stroke-miterlimit="10"/>
<path d="M497.437 311.315C534.298 348.176 544.827 400.974 528.588 445.269C521.701 464.015 510.142 480.694 495.006 493.725C479.87 506.756 461.66 515.709 442.099 519.734C432.873 521.656 423.458 522.517 414.037 522.3C380.525 521.247 348.679 507.467 324.976 483.763C301.272 460.06 287.492 428.213 286.439 394.702C285.907 378.432 288.745 362.227 294.773 347.103C300.802 331.98 309.891 318.265 321.471 306.819C333.05 295.373 346.87 286.443 362.062 280.59C377.255 274.738 393.492 272.088 409.754 272.809C442.814 274.047 474.161 287.813 497.437 311.315Z" stroke="#739BEA" stroke-miterlimit="10"/>
<path d="M508.366 300.386C542.913 334.932 552.835 384.459 537.58 425.96C531.123 443.534 520.286 459.17 506.096 471.386C491.907 483.603 474.835 491.995 456.497 495.769C447.846 497.576 439.015 498.38 430.18 498.166C398.767 497.181 368.913 484.265 346.694 462.045C324.474 439.825 311.558 409.972 310.573 378.558C310.076 363.307 312.737 348.117 318.389 333.94C324.04 319.764 332.56 306.907 343.414 296.177C354.268 285.447 367.221 277.075 381.462 271.587C395.702 266.098 410.922 263.612 426.166 264.284C457.161 265.441 486.549 278.348 508.366 300.386V300.386Z" stroke="#7BA1EB" stroke-miterlimit="10"/>
<path d="M519.309 289.443C551.554 321.689 560.817 367.918 546.571 406.651C540.536 423.047 530.419 437.635 517.177 449.036C503.935 460.436 488.005 468.272 470.895 471.803C462.822 473.494 454.582 474.246 446.337 474.045C417.015 473.126 389.15 461.069 368.41 440.329C347.669 419.589 335.613 391.724 334.694 362.402C334.23 348.165 336.714 333.985 341.99 320.751C347.266 307.517 355.22 295.516 365.353 285.499C375.485 275.483 387.578 267.669 400.872 262.546C414.166 257.424 428.374 255.104 442.604 255.732C471.526 256.836 498.943 268.886 519.309 289.443V289.443Z" stroke="#83A6EB" stroke-miterlimit="10"/>
<path d="M530.238 278.514C560.182 308.458 568.773 351.376 555.563 387.342C549.957 402.57 540.561 416.118 528.263 426.705C515.965 437.293 501.171 444.571 485.28 447.851C477.789 449.416 470.144 450.12 462.494 449.95C435.268 449.083 409.398 437.883 390.14 418.625C370.882 399.367 359.682 373.497 358.815 346.271C358.392 333.057 360.703 319.897 365.604 307.616C370.504 295.335 377.888 284.197 387.293 274.901C396.698 265.606 407.921 258.352 420.259 253.596C432.596 248.839 445.782 246.682 458.991 247.259C485.849 248.258 511.319 259.431 530.238 278.514Z" stroke="#8BABEC" stroke-miterlimit="10"/>
<path d="M541.181 267.571C568.823 295.214 576.755 334.835 564.541 368.046C559.368 382.1 550.696 394.603 539.346 404.374C527.997 414.144 514.343 420.86 499.677 423.885C492.755 425.321 485.692 425.964 478.624 425.804C453.501 425.002 429.628 414.665 411.857 396.894C394.087 379.124 383.75 355.251 382.948 330.128C382.548 317.926 384.675 305.772 389.196 294.429C393.716 283.086 400.533 272.799 409.217 264.215C417.901 255.63 428.266 248.933 439.66 244.543C451.054 240.154 463.232 238.167 475.428 238.708C500.218 239.632 523.725 249.951 541.181 267.571Z" stroke="#93B1EC" stroke-miterlimit="10"/>
<path d="M552.136 256.616C577.477 281.957 584.738 318.268 573.546 348.724C568.804 361.607 560.856 373.068 550.452 382.024C540.048 390.98 527.532 397.135 514.088 399.907C507.746 401.238 501.272 401.829 494.794 401.67C471.758 400.936 449.868 391.46 433.574 375.165C417.279 358.871 407.803 336.982 407.069 313.945C406.704 302.759 408.655 291.618 412.8 281.221C416.945 270.823 423.195 261.394 431.156 253.524C439.118 245.655 448.619 239.516 459.064 235.493C469.51 231.469 480.673 229.648 491.854 230.144C514.582 230.996 536.133 240.46 552.136 256.616V256.616Z" stroke="#9BB6EC" stroke-miterlimit="10"/>
<path d="M563.053 245.699C586.079 268.726 592.694 301.753 582.524 329.428C578.215 341.14 570.989 351.559 561.531 359.7C552.073 367.842 540.695 373.436 528.473 375.955C522.708 377.156 516.825 377.695 510.937 377.562C489.996 376.895 470.097 368.281 455.284 353.468C440.471 338.655 431.857 318.756 431.19 297.815C430.855 287.646 432.626 277.517 436.392 268.064C440.158 258.611 445.837 250.038 453.074 242.884C460.311 235.729 468.949 230.148 478.444 226.491C487.94 222.834 498.089 221.179 508.253 221.631C528.916 222.403 548.508 231.008 563.053 245.699Z" stroke="#A3BCED" stroke-miterlimit="10"/>
<path d="M573.995 234.757C594.681 255.444 600.663 285.198 591.515 310.12C587.639 320.664 581.135 330.045 572.62 337.374C564.105 344.703 553.861 349.738 542.858 352.002C537.667 353.089 532.369 353.571 527.068 353.441C508.217 352.854 490.301 345.105 476.967 331.772C463.633 318.438 455.884 300.522 455.298 281.671C454.996 272.52 456.591 263.405 459.98 254.898C463.37 246.392 468.482 238.677 474.995 232.239C481.508 225.802 489.281 220.78 497.827 217.489C506.372 214.199 515.505 212.711 524.652 213.119C543.256 213.789 560.902 221.527 573.995 234.757Z" stroke="#AAC1ED" stroke-miterlimit="10"/>
<path d="M584.924 223.827C593.623 232.35 599.709 243.178 602.466 255.041C605.224 266.903 604.54 279.308 600.494 290.798C597.061 300.173 591.287 308.515 583.721 315.031C576.155 321.547 567.049 326.02 557.269 328.024C552.652 328.992 547.94 329.427 543.224 329.32C526.469 328.786 510.549 321.893 498.697 310.042C486.846 298.19 479.953 282.269 479.419 265.514C479.153 257.378 480.572 249.275 483.587 241.712C486.602 234.149 491.148 227.291 496.939 221.568C502.73 215.845 509.642 211.38 517.24 208.455C524.837 205.529 532.957 204.206 541.09 204.568C557.619 205.189 573.29 212.074 584.924 223.827V223.827Z" stroke="#B2C7EE" stroke-miterlimit="10"/>
<path d="M595.867 212.885C603.481 220.341 608.808 229.817 611.22 240.198C613.633 250.58 613.031 261.435 609.485 271.489C606.491 279.698 601.446 287.005 594.831 292.715C588.216 298.425 580.25 302.347 571.692 304.11C567.654 304.954 563.531 305.328 559.407 305.225C544.75 304.759 530.822 298.73 520.454 288.362C510.087 277.995 504.057 264.067 503.592 249.41C503.361 242.292 504.604 235.203 507.242 228.588C509.88 221.972 513.856 215.972 518.922 210.965C523.987 205.958 530.032 202.051 536.678 199.49C543.324 196.929 550.426 195.768 557.541 196.081C571.987 196.616 585.688 202.623 595.867 212.885V212.885Z" stroke="#BACCEE" stroke-miterlimit="10"/>
<path d="M606.796 201.956C613.324 208.344 617.891 216.465 619.96 225.362C622.029 234.259 621.515 243.563 618.477 252.18C615.892 259.218 611.554 265.481 605.873 270.375C600.191 275.268 593.356 278.631 586.013 280.145C582.551 280.859 579.02 281.181 575.486 281.104C562.925 280.701 550.99 275.532 542.105 266.647C533.22 257.762 528.051 245.827 527.648 233.266C527.452 227.165 528.519 221.089 530.781 215.418C533.044 209.748 536.453 204.605 540.796 200.314C545.138 196.022 550.321 192.674 556.017 190.478C561.714 188.283 567.803 187.288 573.901 187.556C586.298 188.004 598.059 193.152 606.796 201.956V201.956Z" stroke="#C2D1EF" stroke-miterlimit="10"/>
<path d="M617.739 191.013C623.18 196.337 626.987 203.105 628.711 210.52C630.434 217.936 630.003 225.691 627.468 232.871C625.312 238.725 621.7 243.934 616.972 248.006C612.245 252.077 606.558 254.877 600.449 256.141C597.566 256.738 594.625 257.007 591.681 256.944C581.21 256.611 571.261 252.304 563.855 244.897C556.448 237.491 552.141 227.541 551.808 217.071C551.641 211.987 552.528 206.923 554.411 202.197C556.295 197.471 559.135 193.185 562.753 189.608C566.371 186.031 570.689 183.241 575.436 181.412C580.183 179.583 585.257 178.754 590.339 178.979C600.671 179.361 610.468 183.664 617.739 191.013Z" stroke="#CAD7EF" stroke-miterlimit="10"/>
<path d="M628.681 180.071C633.047 184.333 636.104 189.755 637.491 195.698C638.878 201.641 638.538 207.857 636.511 213.614C634.794 218.302 631.907 222.473 628.125 225.731C624.342 228.989 619.789 231.225 614.898 232.227C612.575 232.731 610.201 232.962 607.825 232.914C599.444 232.661 591.478 229.219 585.55 223.292C579.623 217.364 576.182 209.398 575.928 201.018C575.793 196.951 576.501 192.9 578.007 189.119C579.513 185.338 581.785 181.909 584.68 179.049C587.575 176.188 591.03 173.957 594.828 172.495C598.627 171.034 602.686 170.374 606.751 170.557C615.004 170.833 622.842 174.234 628.681 180.071V180.071Z" stroke="#D2DCF0" stroke-miterlimit="10"/>
<path d="M639.611 169.141C642.888 172.335 645.182 176.4 646.224 180.857C647.266 185.313 647.011 189.975 645.49 194.292C644.202 197.807 642.037 200.934 639.201 203.377C636.364 205.82 632.95 207.497 629.283 208.249C627.554 208.614 625.787 208.775 624.02 208.728C617.732 208.541 611.753 205.959 607.305 201.511C602.857 197.064 600.276 191.085 600.088 184.796C599.988 181.746 600.52 178.707 601.65 175.872C602.781 173.036 604.486 170.465 606.658 168.32C608.83 166.174 611.422 164.501 614.271 163.406C617.121 162.311 620.166 161.816 623.215 161.954C629.393 162.19 635.251 164.758 639.611 169.141V169.141Z" stroke="#D9E2F0" stroke-miterlimit="10"/>
<path d="M650.553 158.199C652.738 160.337 654.264 163.057 654.951 166.036C655.638 169.015 655.457 172.129 654.429 175.009C653.571 177.355 652.127 179.443 650.234 181.073C648.342 182.703 646.063 183.822 643.616 184.322C642.458 184.549 641.279 184.654 640.099 184.633C635.911 184.505 631.93 182.785 628.968 179.822C626.006 176.86 624.285 172.88 624.157 168.692C624.087 166.657 624.44 164.629 625.192 162.737C625.945 160.845 627.081 159.129 628.53 157.697C629.978 156.266 631.707 155.15 633.608 154.42C635.509 153.69 637.541 153.361 639.575 153.455C643.704 153.585 647.629 155.281 650.553 158.199V158.199Z" stroke="#E1E7F1" stroke-miterlimit="10"/>
<path d="M661.482 147.269C662.573 148.334 663.338 149.688 663.686 151.172C664.033 152.657 663.95 154.21 663.446 155.649C663.017 156.822 662.295 157.865 661.349 158.68C660.403 159.495 659.263 160.055 658.04 160.305C657.46 160.415 656.871 160.467 656.281 160.461C654.186 160.394 652.196 159.532 650.714 158.05C649.233 156.569 648.371 154.578 648.304 152.483C648.254 151.463 648.417 150.443 648.785 149.49C649.153 148.537 649.716 147.671 650.439 146.948C651.161 146.226 652.027 145.662 652.98 145.295C653.934 144.927 654.954 144.763 655.974 144.813C658.057 144.896 660.029 145.775 661.482 147.269V147.269Z" stroke="#E9EDF1" stroke-miterlimit="10"/>
</svg>
