<svg width="171" height="67" viewBox="0 0 171 67" fill="none" xmlns="http://www.w3.org/2000/svg">
<path d="M4.1322 14.1169C4.11969 14.5715 4.23143 15.0207 4.45525 15.4158C4.67907 15.8109 5.00639 16.1367 5.40156 16.3577C6.2253 16.8737 7.73099 17.2132 9.91862 17.3762C12.2683 17.5663 14.0688 18.1299 15.3202 19.0669C15.9321 19.5455 16.4194 20.1662 16.7405 20.8758C17.0615 21.5854 17.2067 22.3626 17.1635 23.141V23.3854C17.1788 24.2959 16.9774 25.1969 16.576 26.0132C16.1872 26.7838 15.6339 27.4586 14.9556 27.9891C14.2061 28.5627 13.3531 28.9847 12.4439 29.2317C11.3955 29.5254 10.3114 29.6694 9.22317 29.6595C7.84612 29.6939 6.47408 29.48 5.172 29.028C4.14041 28.6608 3.19065 28.0932 2.37669 27.3577C1.6522 26.7056 1.07244 25.9074 0.675195 25.0151C0.296998 24.172 0.0684835 23.2689 0 22.3465L2.99787 21.6132C3.07994 23.0436 3.72061 24.3834 4.78038 25.341C5.96058 26.3229 7.46383 26.8244 8.9936 26.7465C10.2474 26.8057 11.4918 26.5017 12.5789 25.8706C13.0024 25.6185 13.351 25.2569 13.5885 24.8235C13.826 24.39 13.9436 23.9005 13.9293 23.4058C13.9642 22.9105 13.8551 22.4158 13.6153 21.9818C13.3755 21.5478 13.0155 21.1932 12.5789 20.9614C11.2108 20.3606 9.73683 20.042 8.24414 20.0243C5.92146 19.8614 4.13895 19.3181 2.89659 18.3947C2.27936 17.929 1.78622 17.3171 1.46108 16.6134C1.13595 15.9097 0.988903 15.1361 1.03305 14.3614V14.1169C1.01414 13.2426 1.22367 12.3787 1.64073 11.6114C2.0518 10.8891 2.61954 10.2694 3.30171 9.7984C4.00985 9.30035 4.79777 8.92827 5.63113 8.6984C6.51048 8.45255 7.41921 8.32917 8.33191 8.33173C9.5163 8.30875 10.6955 8.4949 11.8159 8.88173C12.7319 9.20065 13.5829 9.68375 14.3276 10.3077C14.9835 10.8695 15.5149 11.5634 15.8873 12.3447C16.2392 13.0639 16.4783 13.8335 16.5963 14.6262L13.5984 15.3595C13.5601 14.77 13.4019 14.1947 13.1336 13.6691C12.8654 13.1435 12.4927 12.6789 12.0387 12.304C11.0204 11.5337 9.76683 11.1447 8.49396 11.204C7.9419 11.2022 7.39145 11.2637 6.85323 11.3873C6.36152 11.4957 5.88986 11.6813 5.45558 11.9373C5.06734 12.1658 4.73507 12.4791 4.4833 12.854C4.24477 13.2308 4.1226 13.6703 4.1322 14.1169V14.1169Z" fill="white"/>
<path d="M24.064 8.90217H30.3838V0.591064H33.5437V8.90217H41.322V11.8355H33.5437V24.954C33.5437 25.7688 33.9083 26.1762 34.6375 26.1762H40.3497V29.1096H33.5032C33.0871 29.125 32.6724 29.0533 32.2854 28.899C31.8983 28.7447 31.5474 28.5112 31.2548 28.2133C30.9649 27.9112 30.7384 27.5535 30.5888 27.1616C30.4391 26.7696 30.3694 26.3514 30.3838 25.9318V11.8355H24.064V8.90217Z" fill="white"/>
<path d="M51.8552 19.9835C51.8515 21.7771 52.5164 23.5069 53.7187 24.8316C54.357 25.4614 55.1192 25.9499 55.9565 26.2657C56.7937 26.5814 57.6874 26.7174 58.5801 26.665C59.4154 26.68 60.2482 26.5702 61.0513 26.3391C61.6998 26.1487 62.3099 25.8453 62.8541 25.4428C63.3371 25.0807 63.7492 24.6318 64.0694 24.1187C64.3812 23.6137 64.6328 23.0736 64.8189 22.5094L67.8168 23.3242C67.2829 25.1496 66.1829 26.7555 64.6771 27.9076C63.1512 29.0891 61.0918 29.6798 58.4991 29.6798C57.1457 29.6949 55.803 29.4387 54.5492 28.9261C53.3763 28.4435 52.3196 27.7143 51.45 26.7872C50.566 25.8316 49.8777 24.7103 49.4245 23.4872C48.9245 22.1319 48.6773 20.6956 48.6952 19.2502V18.2724C48.6842 16.9184 48.9389 15.5754 49.4447 14.3205C49.9193 13.1363 50.6293 12.0619 51.5311 11.1631C52.44 10.2705 53.5134 9.56474 54.691 9.08535C55.9313 8.5753 57.2604 8.31907 58.6004 8.33164C60.077 8.29396 61.5415 8.60807 62.8743 9.24831C63.9982 9.7994 65.0031 10.5677 65.8317 11.5094C67.2316 13.1456 68.026 15.2183 68.0801 17.3761V19.9835H51.8552ZM58.6071 11.3465C57.758 11.3391 56.9143 11.484 56.1156 11.7742C54.6305 12.3088 53.3991 13.3848 52.6654 14.7891C52.3085 15.4964 52.0799 16.2621 51.9902 17.0502H64.9539C64.9122 16.2269 64.6983 15.4217 64.326 14.6872C63.958 14.0054 63.4575 13.4051 62.8541 12.9218C62.264 12.4274 61.5921 12.0413 60.869 11.781C60.1374 11.5019 59.3626 11.3548 58.5801 11.3465H58.6071Z" fill="white"/>
<path d="M74.3389 26.1762H81.631V3.5244H74.5819V0.591064H84.7909V26.1762H92.083V29.1096H74.3389V26.1762Z" fill="white"/>
<path d="M113.716 25.6873H113.23C112.666 26.9515 111.721 28.0059 110.529 28.7021C109.427 29.3418 108.177 29.679 106.904 29.6799C105.643 29.6894 104.392 29.459 103.217 29.0009C102.093 28.5594 101.077 27.8784 100.24 27.0046C99.3513 26.0754 98.662 24.9731 98.2139 23.7657C97.7029 22.3427 97.4557 20.8376 97.4847 19.3249V18.6459C97.4701 17.1564 97.7264 15.6767 98.2409 14.2799C98.689 13.0724 99.3784 11.9701 100.267 11.041C101.105 10.158 102.12 9.4637 103.244 9.00394C104.391 8.54469 105.615 8.31407 106.85 8.32492C108.156 8.30722 109.445 8.62259 110.597 9.24159C111.751 9.88756 112.678 10.8766 113.251 12.0731H113.737V8.90209H116.897V24.9539C116.897 25.7688 117.261 26.1762 117.99 26.1762H119.003V29.1095H116.809C116.393 29.1249 115.978 29.0532 115.591 28.8989C115.204 28.7446 114.853 28.5111 114.56 28.2132C114.27 27.9111 114.044 27.5534 113.894 27.1615C113.745 26.7695 113.675 26.3513 113.689 25.9317L113.716 25.6873ZM107.235 26.665C108.133 26.6747 109.023 26.4942 109.848 26.1354C110.625 25.7889 111.316 25.2742 111.873 24.628C112.466 23.94 112.925 23.1451 113.224 22.2854C113.558 21.3095 113.723 20.2826 113.71 19.2502V18.7613C113.721 17.7425 113.556 16.7294 113.224 15.7669C112.929 14.9052 112.47 14.1095 111.873 13.4243C111.297 12.7762 110.594 12.2559 109.807 11.8965C109 11.5265 108.122 11.3388 107.235 11.3465C106.343 11.3355 105.459 11.516 104.642 11.8762C103.872 12.2269 103.183 12.733 102.616 13.3632C102.017 14.039 101.557 14.8285 101.266 15.6854C100.933 16.6479 100.769 17.661 100.78 18.6799V19.3589C100.78 21.6675 101.381 23.4782 102.582 24.791C103.182 25.4159 103.907 25.9061 104.709 26.2291C105.511 26.5521 106.371 26.7007 107.235 26.665V26.665Z" fill="white"/>
<path d="M126.842 8.90204H134.134V11.6181H134.62C135.065 10.5803 135.833 9.7155 136.808 9.15328C137.802 8.6113 138.918 8.33759 140.049 8.35883C140.96 8.32158 141.869 8.4804 142.714 8.82467C143.56 9.16893 144.322 9.69071 144.951 10.3551C146.193 11.686 146.855 13.628 146.936 16.1811L143.614 16.6699C143.614 14.7959 143.164 13.4378 142.264 12.5959C141.373 11.7671 140.195 11.3212 138.982 11.3533C138.231 11.3334 137.486 11.5014 136.815 11.8422C136.209 12.1686 135.689 12.6339 135.296 13.2002C134.876 13.803 134.573 14.4804 134.404 15.1965C134.211 15.9966 134.115 16.8175 134.121 17.6409V26.1965H139.225V29.1298H126.356V26.1761H130.988V11.8354H126.856L126.842 8.90204Z" fill="white"/>
<path d="M150.258 26.1761H157.32V11.8354H151.001V8.90206H160.453V26.1761H167.016V29.1095H150.258V26.1761ZM156.01 2.87243C156 2.4934 156.068 2.11633 156.211 1.76549C156.354 1.41465 156.569 1.09782 156.841 0.835391C157.104 0.570541 157.417 0.360449 157.761 0.217112C158.105 0.073775 158.474 0 158.846 0C159.219 0 159.588 0.073775 159.932 0.217112C160.276 0.360449 160.588 0.570541 160.852 0.835391C161.124 1.09782 161.338 1.41465 161.481 1.76549C161.624 2.11633 161.693 2.4934 161.682 2.87243C161.693 3.25146 161.624 3.62853 161.481 3.97936C161.338 4.3302 161.124 4.64703 160.852 4.90946C160.588 5.17431 160.276 5.38441 159.932 5.52774C159.588 5.67108 159.219 5.74486 158.846 5.74486C158.474 5.74486 158.105 5.67108 157.761 5.52774C157.417 5.38441 157.104 5.17431 156.841 4.90946C156.569 4.64703 156.354 4.3302 156.211 3.97936C156.068 3.62853 156 3.25146 156.01 2.87243V2.87243Z" fill="white"/>
<path d="M57.3916 50.4576C57.3758 50.9087 57.4825 51.3557 57.7002 51.7504C57.9178 52.1452 58.2383 52.4729 58.6272 52.6983C59.451 53.2144 60.9567 53.5539 63.1443 53.7168C65.494 53.907 67.2832 54.4705 68.5121 55.4076C69.124 55.8862 69.6113 56.5069 69.9324 57.2165C70.2534 57.926 70.3986 58.7033 70.3554 59.4817V59.7736C70.3707 60.6841 70.1693 61.5851 69.768 62.4014C69.3791 63.172 68.8258 63.8468 68.1475 64.3773C67.398 64.9509 66.545 65.3729 65.6358 65.6199C63.2492 66.2531 60.7319 66.1824 58.3842 65.4162C57.3526 65.049 56.4028 64.4814 55.5889 63.7459C54.8694 63.0859 54.2965 62.2807 53.9076 61.3829C53.5294 60.5398 53.3009 59.6367 53.2324 58.7144L56.2303 57.981C56.3333 59.4099 56.9934 60.7399 58.0668 61.6817C59.247 62.6636 60.7503 63.1651 62.28 63.0872C63.5339 63.1464 64.7783 62.8424 65.8653 62.2113C66.2888 61.9592 66.6374 61.5976 66.8749 61.1642C67.1124 60.7307 67.2301 60.2412 67.2157 59.7465C67.2506 59.2512 67.1415 58.7565 66.9018 58.3224C66.662 57.8884 66.3019 57.5339 65.8653 57.302C64.4984 56.7069 63.0268 56.3929 61.5373 56.3786C59.2147 56.2156 57.4321 55.6724 56.1898 54.7489C55.5726 54.2833 55.0794 53.6714 54.7543 52.9677C54.4291 52.2639 54.2821 51.4903 54.3262 50.7156V50.4712C54.3073 49.5969 54.5169 48.7329 54.9339 47.9656C55.3392 47.2455 55.8998 46.626 56.5746 46.1526C57.2828 45.6546 58.0707 45.2825 58.9041 45.0526C59.7834 44.8068 60.6921 44.6834 61.6048 44.686C62.7892 44.663 63.9684 44.8491 65.0889 45.236C66.0048 45.5549 66.8558 46.038 67.6006 46.6619C68.2565 47.2237 68.7878 47.9177 69.1603 48.6989C69.5005 49.4201 69.7282 50.1896 69.8355 50.9804L66.8376 51.7138C66.7993 51.1242 66.6411 50.5489 66.3728 50.0233C66.1045 49.4978 65.7319 49.0331 65.2779 48.6582C64.2732 47.896 63.0381 47.5052 61.7804 47.5514C61.2283 47.5497 60.6779 47.6112 60.1397 47.7347C59.6511 47.8261 59.1795 47.9933 58.742 48.2304C58.3538 48.4589 58.0215 48.7722 57.7697 49.1471C57.5125 49.5343 57.3805 49.992 57.3916 50.4576V50.4576Z" fill="white"/>
<path d="M77.3369 45.2427H83.6567V36.9316H86.8167V45.2427H94.5949V48.1761H86.8167V61.2946C86.8167 62.1094 87.1813 62.5168 87.9105 62.5168H93.6226V65.4502H86.7761C86.3581 65.4621 85.9422 65.3861 85.555 65.2271C85.1679 65.0681 84.818 64.8295 84.5277 64.5267C84.2378 64.2246 84.0113 63.8669 83.8617 63.475C83.7121 63.083 83.6424 62.6648 83.6567 62.2452V48.1761H77.3369V45.2427Z" fill="white"/>
<path d="M116.728 62.028H116.242C115.677 63.2922 114.732 64.3466 113.541 65.0428C112.438 65.6825 111.188 66.0197 109.915 66.0206C108.655 66.0301 107.404 65.7997 106.229 65.3415C105.104 64.9001 104.089 64.2191 103.251 63.3453C102.363 62.4161 101.673 61.3138 101.225 60.1064C100.728 58.6924 100.49 57.1992 100.523 55.6996V55.0206C100.504 53.5196 100.761 52.0281 101.279 50.6206C101.727 49.4131 102.417 48.3108 103.305 47.3817C104.143 46.4987 105.158 45.8044 106.283 45.3446C107.429 44.8854 108.654 44.6548 109.888 44.6656C111.194 44.6479 112.483 44.9633 113.635 45.5823C114.788 46.23 115.714 47.2185 116.289 48.4138H116.775V45.2428H119.935V61.2946C119.935 62.1094 120.3 62.5169 121.029 62.5169H122.042V65.4502H119.847C119.429 65.4621 119.013 65.3861 118.626 65.2271C118.239 65.0681 117.889 64.8295 117.599 64.5267C117.308 64.2255 117.08 63.868 116.931 63.4759C116.781 63.0837 116.712 62.665 116.728 62.2453V62.028ZM110.246 63.0057C111.144 63.0154 112.034 62.8349 112.859 62.4761C113.636 62.1296 114.328 61.6149 114.885 60.9687C115.478 60.2807 115.936 59.4858 116.235 58.6261C116.57 57.6502 116.734 56.6233 116.721 55.5909V55.102C116.732 54.0832 116.568 53.07 116.235 52.1076C115.941 51.2459 115.482 50.4502 114.885 49.765C114.308 49.1159 113.605 48.5935 112.818 48.2304C112.011 47.8621 111.133 47.6745 110.246 47.6804C109.354 47.6694 108.47 47.85 107.653 48.2101C106.884 48.5608 106.194 49.0669 105.628 49.6971C105.028 50.3729 104.569 51.1624 104.277 52.0193C103.945 52.9818 103.78 53.9949 103.791 55.0138V55.6928C103.791 58.0014 104.392 59.8121 105.594 61.1249C106.192 61.7532 106.916 62.246 107.718 62.5703C108.52 62.8947 109.382 63.0431 110.246 63.0057Z" fill="white"/>
<path d="M128.503 45.2429H135.795V47.9589H136.281C136.722 46.9184 137.491 46.0524 138.469 45.4941C139.463 44.9515 140.58 44.6778 141.71 44.6997C142.621 44.6624 143.53 44.8212 144.375 45.1655C145.221 45.5097 145.983 46.0315 146.612 46.6959C147.848 48.054 148.516 49.9688 148.597 52.5219L145.275 53.0108C145.275 51.1367 144.825 49.7787 143.925 48.9367C143.034 48.1079 141.856 47.662 140.643 47.6941C139.892 47.6742 139.147 47.8422 138.476 48.183C137.87 48.5094 137.35 48.9747 136.957 49.541C136.534 50.1424 136.232 50.8203 136.065 51.5373C135.872 52.3374 135.776 53.1583 135.782 53.9818V62.4898H140.886V65.4231H128.017V62.4898H132.635V48.1762H128.503V45.2429Z" fill="white"/>
<path d="M153.742 45.2427H160.055V36.9316H163.222V45.2427H171V48.1761H163.222V61.2946C163.222 62.1094 163.587 62.5168 164.316 62.5168H170.028V65.4502H163.175C162.757 65.4612 162.341 65.3849 161.954 65.2259C161.567 65.0669 161.217 64.8288 160.926 64.5267C160.636 64.2246 160.41 63.8669 160.26 63.475C160.111 63.083 160.041 62.6648 160.055 62.2452V48.1761H153.742V45.2427Z" fill="white"/>
<path d="M10.8436 56.27L4.09168 65.4502H0L7.10981 55.0206V54.5113L0.540156 44.557H4.54407L10.8436 53.2348V56.27Z" fill="white"/>
</svg>
